# xmcd
#
# Track frame offsets:
#	150
#	11697
#	20912
#	31755
#	41647
#	51525
#	64055
#	76435
#	86160
#	96987
#	107895
#	117277
#	128675
#	141115
#	154412
#	167510
#	179800
#	193952
#	207220
#	220882
#	233375
#	246022
#	258965
#	270402
#
# Disc length: 3767 seconds
#
# Revision: 1
# Processed by: cddbd v1.5.1PL0 Copyright (c) Steve Scherf et al.
# Submitted via: audiograbber 1.82.02
#
DISCID=5b0eb518
DTITLE=Ray Anthony - Plays for Dancers in Love/Plays For Dream Dancing
DYEAR=2001
DGENRE=Easy Listening
TTITLE0=Day By Day
TTITLE1=You Do Something To Me
TTITLE2=I Hadn´t Anyone Till You
TTITLE3=Easy To Love
TTITLE4=Where Am I?
TTITLE5=I´ve Got You Under My Skin
TTITLE6=Through!(How Can You Say We´re Through?)
TTITLE7=Falling In Love With Love
TTITLE8=I´ll Close My Eyes
TTITLE9=Blue Champagne
TTITLE10=Where Or When
TTITLE11=Dancers In Love
TTITLE12=This Love Of Mine
TTITLE13=Dream Dancing
TTITLE14=I´ll Never Smile Again
TTITLE15=Out Of Nowhere
TTITLE16=I Only Have Eyes For You
TTITLE17=Embraceable You
TTITLE18=Street Of Dreams
TTITLE19=Stars Fells On Alabama
TTITLE20=I Don´t Know Why!(I Just Do)
TTITLE21=Laura
TTITLE22=Moonlight In Vermont
TTITLE23=September Song
EXTD=
EXTT0=
EXTT1=
EXTT2=
EXTT3=
EXTT4=
EXTT5=
EXTT6=
EXTT7=
EXTT8=
EXTT9=
EXTT10=
EXTT11=
EXTT12=
EXTT13=
EXTT14=
EXTT15=
EXTT16=
EXTT17=
EXTT18=
EXTT19=
EXTT20=
EXTT21=
EXTT22=
EXTT23=
PLAYORDER=
